<svg width="27" height="27" viewBox="0 0 27 27" fill="none" xmlns="http://www.w3.org/2000/svg">
<path d="M20.0225 9.69592C21.8969 10.7714 22.8341 11.3091 23.23 11.9611C23.804 12.9065 23.804 14.0934 23.23 15.0389C22.8341 15.6909 21.8969 16.2286 20.0225 17.3041L9.89622 23.1141C8.0398 24.1792 7.11159 24.7118 6.3532 24.7258C5.25361 24.7462 4.23345 24.1543 3.70438 23.189C3.33947 22.5233 3.33947 21.4522 3.33947 19.31V7.69001C3.33947 5.54783 3.33947 4.47674 3.70438 3.81098C4.23345 2.84569 5.25361 2.25382 6.3532 2.27419C7.11159 2.28824 8.0398 2.82081 9.89621 3.88593L20.0225 9.69592Z" fill="#5F5F5E"/>
</svg>
